# xmcd
#
# Track frame offsets:
#	150
#	20799
#	34121
#	62544
#	80958
#	92581
#	110062
#	128237
#	146999
#	165771
#	184073
#	196889
#
# Disc length: 2905 seconds
#
# Revision: 0
# Processed by: cddbd v1.5.2PL0 Copyright (c) Steve Scherf et al.
# Submitted via: EasyCDDAExtractor 16.0.9.1
#
DISCID=a60b570c
DTITLE=Ray Charles - N-108 Ray Charles  Ray Sings Bassie Swings
DYEAR=1900
DGENRE=R&B
TTITLE0=Oh, What A Beautiful Morning
TTITLE1=Let The Good Times Roll
TTITLE2=How Long Has This Been Going O
TTITLE3=Every Saturday Night
TTITLE4=Busted
TTITLE5=Crying Time
TTITLE6=I Can't Stop Loving You
TTITLE7=Come Live With Me
TTITLE8=Feel So Bad
TTITLE9=The Long And Winding Road
TTITLE10=Look What They've Done To My S
TTITLE11=Georgia On My Mind
EXTD=
EXTT0=
EXTT1=
EXTT2=
EXTT3=
EXTT4=
EXTT5=
EXTT6=
EXTT7=
EXTT8=
EXTT9=
EXTT10=
EXTT11=
PLAYORDER=
